<svg xmlns="http://www.w3.org/2000/svg" width="41" height="41" viewBox="0 0 41 41" fill="none">
  <rect x="0.5" y="0.0849609" width="40" height="40" rx="20" fill="white"/>
  <path d="M28.7851 14.5792C26.975 11.8879 24.4374 10.3776 21.1978 10.1179C19.1537 9.95432 17.2214 10.3998 15.4664 11.4718C12.5611 13.2459 10.9279 15.8483 10.6169 19.2361C10.4364 21.202 10.8647 23.0656 11.8164 24.8034C11.8639 24.8981 11.877 25.0065 11.8534 25.1098C11.5604 26.2125 11.2581 27.3124 10.9564 28.4133C10.8076 28.9587 10.6585 29.5041 10.5 30.085C10.6081 30.0602 10.6751 30.0464 10.7415 30.0292C12.3672 29.6038 13.9932 29.1794 15.6193 28.756C15.7102 28.7361 15.8051 28.7471 15.889 28.7874C18.0441 29.8882 20.3031 30.1971 22.6684 29.6761C26.8622 28.7526 30.0617 25.0775 30.375 20.8066C30.5404 18.5579 30.0473 16.4564 28.7851 14.5792ZM25.9008 26.2019C24.626 27.2984 23.159 27.9732 21.4901 28.1715C19.6104 28.3948 17.8511 28.0148 16.227 27.0386C16.0738 26.9465 15.9395 26.919 15.7621 26.9672C14.8411 27.2178 13.9163 27.4531 12.9924 27.6937C12.968 27.7003 12.9429 27.7047 12.8938 27.7153C13.0977 26.9697 13.2957 26.2451 13.4943 25.5205C13.5654 25.2605 13.7158 24.9917 13.6876 24.7433C13.6594 24.4948 13.4523 24.2718 13.322 24.0384C12.5595 22.6744 12.202 21.2082 12.2725 19.6503C12.4464 15.7932 15.2114 12.7337 18.7026 11.975C22.7752 11.0896 26.7413 13.2525 28.2175 17.1513C29.4073 20.2953 28.4565 24.0005 25.9008 26.2019ZM24.663 24.2909C23.845 24.8235 22.9873 24.8679 22.075 24.6117C19.7351 23.9538 17.9993 22.4889 16.6042 20.5575C16.1428 19.9191 15.7233 19.2609 15.5447 18.4814C15.4908 18.2465 15.4727 18.0034 15.4382 17.764C15.4539 16.9448 15.7728 16.2691 16.3492 15.703C16.5422 15.515 16.769 15.4138 17.0384 15.421C17.1841 15.4242 17.331 15.4417 17.477 15.4298C17.7245 15.4094 17.8768 15.5347 17.9651 15.7409C18.2565 16.4216 18.5478 17.1027 18.815 17.7932C18.8589 17.9063 18.8216 18.0908 18.7524 18.2004C18.5733 18.4808 18.3758 18.7491 18.1612 19.0034C18.0124 19.1835 17.9902 19.3386 18.1145 19.545C18.9209 20.8859 20.0334 21.8652 21.4936 22.4413C21.7263 22.5331 21.851 22.5093 22.0073 22.3194C22.258 22.0146 22.5105 21.7092 22.7495 21.3946C22.8811 21.2214 23.0371 21.144 23.2345 21.238C23.949 21.5722 24.6611 21.9122 25.3676 22.2637C25.4399 22.2997 25.5051 22.4259 25.5085 22.5143C25.5374 23.2489 25.3193 23.8645 24.663 24.2909Z" fill="#EA3458"/>
</svg>