<svg xmlns="http://www.w3.org/2000/svg" width="41" height="41" viewBox="0 0 41 41" fill="none">
    <rect x="0.5" y="0.0849609" width="40" height="40" rx="20" fill="white"/>
    <path d="M30.499 16.4655C30.499 15.451 30.3988 14.4479 30.0139 13.4974C29.325 11.7959 28.0615 10.748 26.2877 10.3329C25.7183 10.1949 25.1356 10.1192 24.5498 10.107C22.0204 10.0792 19.4906 10.0854 16.9608 10.0858C16.145 10.0858 15.3316 10.1451 14.5437 10.3741C12.4719 10.9758 11.2162 12.3513 10.7394 14.4435C10.5191 15.4094 10.5151 16.3968 10.5069 17.3795C10.4912 19.1791 10.4912 20.9786 10.5069 22.778C10.5151 23.7477 10.5175 24.7214 10.7343 25.6754C11.2473 27.9303 12.6353 29.3305 14.8882 29.8356C15.493 29.9711 16.1266 29.9793 16.7471 30.0437C16.9215 30.0618 17.0967 30.0712 17.2719 30.085H23.7297C24.1649 30.0583 24.6008 30.037 25.0356 30.0044C26.6322 29.8866 28.0458 29.3642 29.1204 28.1164C29.7723 27.363 30.1929 26.4374 30.3316 25.4507C30.4331 24.7614 30.4868 24.0659 30.4923 23.3691C30.5123 21.0679 30.5029 18.7671 30.499 16.4655ZM28.6942 23.5572C28.6875 24.2249 28.6549 24.8985 28.468 25.5509C28.0642 26.9692 27.1196 27.801 25.6896 28.0889C24.6994 28.2885 23.6904 28.246 22.6885 28.2724C21.965 28.2904 17.6469 28.2559 16.2138 28.2013C15.4604 28.1722 14.726 28.0131 14.0724 27.6121C13.1726 27.0579 12.6675 26.2257 12.5045 25.2013C12.4051 24.571 12.3526 23.9342 12.3474 23.296C12.3285 21.1508 12.3285 19.0052 12.3474 16.8594C12.3533 16.1258 12.3749 15.3878 12.5638 14.6678C12.9597 13.1604 13.9581 12.3167 15.4632 12.0473C16.4423 11.8721 17.4368 11.8902 18.4274 11.887C20.084 11.8823 21.7411 11.8745 23.3974 11.8945C24.2493 11.9051 25.1063 11.9039 25.9417 12.1207C27.4063 12.5009 28.2508 13.4609 28.545 14.9235C28.7146 15.7652 28.7103 16.6222 28.7131 17.4765C28.7178 19.5023 28.7115 21.5293 28.6942 23.5572ZM20.5102 14.9125C17.6646 14.9231 15.3473 17.2538 15.3607 20.086C15.374 22.9182 17.6964 25.2312 20.5259 25.2245C23.3554 25.2178 25.6711 22.9005 25.675 20.0703C25.679 17.24 23.3408 14.9015 20.5102 14.9125ZM20.5102 23.3962C20.0729 23.3968 19.6399 23.311 19.2359 23.1436C18.832 22.9762 18.4651 22.7306 18.1565 22.4209C17.8478 22.1112 17.6034 21.7436 17.4374 21.3391C17.2713 20.9346 17.1869 20.5012 17.189 20.064C17.1879 19.6251 17.2738 19.1903 17.4419 18.7848C17.61 18.3793 17.8568 18.0111 18.1681 17.7017C18.4794 17.3922 18.8489 17.1476 19.2554 16.9819C19.6619 16.8162 20.0972 16.7328 20.5361 16.7365C20.9734 16.7378 21.4062 16.8254 21.8096 16.9943C22.2129 17.1632 22.579 17.41 22.8869 17.7206C23.1947 18.0312 23.4382 18.3995 23.6035 18.8044C23.7687 19.2093 23.8524 19.6428 23.8499 20.0801C23.8495 20.5175 23.7626 20.9506 23.5943 21.3544C23.4261 21.7581 23.1797 22.1247 22.8693 22.4329C22.5589 22.7412 22.1907 22.9851 21.7858 23.1506C21.3809 23.3161 20.9472 23.4 20.5098 23.3974L20.5102 23.3962ZM27.0768 14.7201C27.0764 14.8783 27.0447 15.0349 26.9836 15.1808C26.9224 15.3267 26.833 15.4591 26.7205 15.5704C26.608 15.6816 26.4747 15.7696 26.328 15.8291C26.1814 15.8886 26.0245 15.9185 25.8663 15.9172C25.7082 15.9186 25.5514 15.8883 25.4051 15.8283C25.2588 15.7682 25.126 15.6795 25.0145 15.5674C24.903 15.4553 24.815 15.322 24.7557 15.1754C24.6964 15.0288 24.667 14.8719 24.6692 14.7138C24.6689 14.5556 24.6999 14.399 24.7603 14.2529C24.8208 14.1067 24.9095 13.974 25.0214 13.8622C25.1333 13.7505 25.2662 13.6619 25.4124 13.6017C25.5586 13.5414 25.7152 13.5107 25.8734 13.5111C26.1928 13.5138 26.4983 13.6424 26.7236 13.869C26.9488 14.0955 27.0756 14.4018 27.0764 14.7212L27.0768 14.7201Z" fill="#EA3458"/>
</svg>
