<svg xmlns="http://www.w3.org/2000/svg" width="41" height="41" viewBox="0 0 41 41" fill="none">
  <rect x="0.5" y="0.0849609" width="40" height="40" rx="20" fill="white"/>
  <path d="M24.7293 10.0884V13.5417H24.6415C24.077 13.5417 23.5124 13.5386 22.9477 13.544C22.7087 13.5463 22.4705 13.5664 22.24 13.6427C21.9354 13.7433 21.7608 13.955 21.7091 14.2658C21.6841 14.4135 21.6705 14.5628 21.6684 14.7126C21.662 15.3195 21.6625 15.9269 21.6604 16.5341C21.6604 16.6309 21.6604 16.6312 21.7567 16.6312H24.7499C24.7429 16.7185 24.7386 16.7955 24.7303 16.8725C24.6871 17.2767 24.6417 17.6808 24.5993 18.085C24.5609 18.4497 24.5259 18.8143 24.488 19.1786C24.4584 19.4655 24.426 19.7518 24.3966 20.0384C24.393 20.0745 24.3812 20.0925 24.3436 20.0899C24.3258 20.0886 24.3078 20.0899 24.29 20.0899H21.7624C21.6594 20.0899 21.6594 20.0899 21.6594 20.1914C21.6594 23.4446 21.6594 26.6977 21.6594 29.9506C21.6594 30.1 21.6746 30.0845 21.527 30.0845C20.2455 30.0845 18.9639 30.0845 17.6821 30.0845H17.6486C17.5456 30.0845 17.5456 30.0845 17.5456 29.9815V21.3236C17.5456 20.9374 17.5443 20.5529 17.5456 20.1674C17.5456 20.1074 17.5312 20.0876 17.4683 20.0879C16.8431 20.0904 16.2179 20.0894 15.593 20.0894C15.5003 20.0894 15.5 20.0894 15.5 19.9995C15.5 18.9062 15.5 17.8128 15.5 16.7193C15.5 16.6322 15.5 16.6314 15.5906 16.6314H17.4446C17.5438 16.6314 17.5438 16.6314 17.5438 16.5323C17.5438 15.9318 17.5378 15.3313 17.5461 14.7298C17.5512 14.3655 17.5633 14.0001 17.5976 13.6375C17.6596 12.9938 17.8183 12.3758 18.1453 11.8093C18.53 11.1436 19.098 10.6971 19.8105 10.4265C20.1968 10.2776 20.6015 10.1823 21.0136 10.1432C21.3362 10.1141 21.6604 10.0917 21.9841 10.0889C22.8647 10.0817 23.7454 10.0866 24.6258 10.0866L24.7293 10.0884Z" fill="#EA3458"/>
</svg>