<svg xmlns="http://www.w3.org/2000/svg" width="25" height="22" viewBox="0 0 25 22" fill="none">
  <g clip-path="url(#clip0_901_204)">
    <path d="M9.60865 16.7385C8.78545 16.8641 7.92865 16.7897 7.09265 16.7993C6.46625 16.8065 5.83905 16.8129 5.21345 16.7993C4.87025 16.7897 4.74385 16.9113 4.74865 17.2633C4.76545 18.4897 4.75505 19.7161 4.75505 20.9433C4.75505 21.4953 4.75505 21.4921 4.21985 21.4961C3.12785 21.5049 2.03585 21.5177 0.943848 21.5281V7.52814C2.06385 7.52814 3.18385 7.54494 4.30385 7.52814C4.64865 7.52334 4.76705 7.62173 4.76305 7.98013C4.74625 9.59293 4.76865 11.2065 4.74705 12.8193C4.74145 13.2313 4.87585 13.3409 5.27425 13.3329C6.40705 13.3081 7.54065 13.3329 8.67345 13.3217C10.2574 13.3105 11.6222 12.0713 11.6942 10.5881C11.7742 8.93454 10.6311 7.55612 8.96705 7.42892C7.78705 7.33852 6.59665 7.38252 5.41105 7.36892C4.88545 7.36332 4.88465 7.36892 4.88385 6.82972C4.88385 6.01692 4.89665 5.20332 4.87745 4.39052C4.86945 4.05212 4.96385 3.91053 5.32545 3.91933C6.60545 3.94093 7.88545 3.90014 9.16545 3.94574C12.3142 4.05774 15.0166 6.83293 15.1862 9.97693C15.3654 13.3137 12.9983 16.2249 9.60865 16.7385Z" fill="#69737D"/>
    <path d="M17.584 0.644531V8.00453H24.944V0.644531H17.584ZM23.3752 6.91893C21.9352 6.91039 20.4968 6.91039 19.06 6.91893C18.7656 6.91893 18.66 6.81413 18.6664 6.51893C18.68 5.78693 18.6664 5.05413 18.6664 4.32133C18.6664 3.61573 18.676 2.90933 18.6664 2.20373C18.6608 1.91653 18.752 1.80373 19.0536 1.80373C20.5048 1.81493 21.9563 1.81493 23.408 1.80373C23.684 1.80373 23.7832 1.90052 23.7816 2.17732C23.7725 3.62852 23.7725 5.08025 23.7816 6.53252C23.7848 6.84052 23.6552 6.92053 23.3752 6.91893Z" fill="#69737D"/>
    <path d="M22.4361 5.27557C22.4361 5.50517 22.3409 5.57797 22.1241 5.57557C21.5257 5.56757 20.9241 5.56517 20.3281 5.57557C20.0801 5.58037 19.9993 5.47557 20.0081 5.24117C20.0193 4.94917 20.0081 4.65637 20.0081 4.36117C20.0081 4.06597 20.0169 3.77557 20.0081 3.48117C19.9993 3.25237 20.0665 3.13717 20.3217 3.14277C20.9201 3.15477 21.5217 3.15077 22.1169 3.14277C22.3273 3.14277 22.4369 3.19796 22.4369 3.43396C22.4273 4.05156 22.4273 4.66437 22.4361 5.27557Z" fill="#69737D"/>
  </g>
  <defs>
    <clipPath id="clip0_901_204">
      <rect width="24" height="20.88" fill="white" transform="translate(0.943848 0.644531)"/>
    </clipPath>
  </defs>
</svg>