<svg xmlns="http://www.w3.org/2000/svg" width="24" height="25" viewBox="0 0 24 25" fill="none">
  <path d="M5.89831 6.60169C2.64408 6.60169 0 9.24576 0 12.5C0 15.7542 2.64408 18.3983 5.89831 18.3983C7.62713 18.3983 9.18644 17.6525 10.2712 16.4322L14.7797 18.7034C14.678 19.0763 14.6441 19.4491 14.6441 19.822C14.6441 22.3983 16.7458 24.5 19.3221 24.5C21.8983 24.5 24 22.3983 24 19.822C24 17.2458 21.8983 15.1441 19.3221 15.1441C17.8644 15.1441 16.5424 15.822 15.6949 16.8729L11.3559 14.7034C11.6271 14.0254 11.7966 13.2797 11.7966 12.5C11.7966 11.7203 11.6271 10.9746 11.3559 10.2966L15.6949 8.12711C16.5424 9.17796 17.8644 9.85592 19.3221 9.85592C21.8983 9.85592 24 7.75425 24 5.17798C24 2.60171 21.8983 0.5 19.3221 0.5C16.7458 0.5 14.6441 2.60171 14.6441 5.17798C14.6441 5.58476 14.7119 5.95761 14.7797 6.2966L10.2712 8.56781C9.18644 7.34747 7.62713 6.60169 5.89831 6.60169ZM5.89831 16.3644C3.76272 16.3644 2.0339 14.6356 2.0339 12.5C2.0339 10.3644 3.76272 8.63559 5.89831 8.63559C8.03391 8.63559 9.76271 10.3644 9.76271 12.5C9.76271 14.6356 8.03391 16.3644 5.89831 16.3644ZM16.9492 18.6356C17.3899 17.7542 18.2712 17.178 19.3221 17.178C20.7797 17.178 21.9661 18.3644 21.9661 19.822C21.9661 21.2796 20.7797 22.4661 19.3221 22.4661C17.8644 22.4661 16.678 21.2796 16.678 19.822C16.678 19.3813 16.7797 19.0085 16.9492 18.6356ZM19.3221 2.5339C20.7797 2.5339 21.9661 3.72035 21.9661 5.17798C21.9661 6.63561 20.7797 7.82202 19.3221 7.82202C18.3051 7.82202 17.3899 7.21188 16.9492 6.36442C16.7797 6.02544 16.678 5.61866 16.678 5.17798C16.678 3.72035 17.8644 2.5339 19.3221 2.5339Z" fill="#374551"/>
</svg>