<svg xmlns="http://www.w3.org/2000/svg" width="19" height="25" viewBox="0 0 19 25" fill="none">
  <path d="M5.70251 7.28202C5.44721 7.28202 5.20236 7.1806 5.02184 7.00008C4.84131 6.81956 4.7399 6.57471 4.7399 6.31941V1.22406C4.7399 0.96876 4.84131 0.723913 5.02184 0.543389C5.20236 0.362866 5.44721 0.261454 5.70251 0.261454C5.95781 0.261454 6.20264 0.362866 6.38317 0.543389C6.56369 0.723913 6.66511 0.96876 6.66511 1.22406V6.31941C6.66511 6.57471 6.56369 6.81956 6.38317 7.00008C6.20264 7.1806 5.95781 7.28202 5.70251 7.28202ZM9.69731 0.280725C9.55721 0.25163 9.41239 0.254088 9.27338 0.28801C9.13437 0.321933 9.00467 0.386444 8.89372 0.476803C8.78277 0.567161 8.69335 0.681098 8.63199 0.810362C8.57062 0.939625 8.53885 1.08097 8.53898 1.22406V6.75583C8.53898 6.99496 8.44399 7.22424 8.2749 7.39333C8.10581 7.56242 7.87647 7.65749 7.63734 7.65749H3.77087C3.53174 7.65749 3.30241 7.56242 3.13332 7.39333C2.96423 7.22424 2.86923 6.99496 2.86923 6.75583V1.22406C2.86936 1.08097 2.83759 0.939625 2.77623 0.810362C2.71486 0.681098 2.62545 0.567161 2.51449 0.476803C2.40354 0.386444 2.27385 0.321933 2.13483 0.28801C1.99582 0.254088 1.851 0.25163 1.7109 0.280725C1.4898 0.331506 1.2929 0.456805 1.15326 0.635592C1.01362 0.814378 0.93974 1.03571 0.944024 1.26252V6.75583C0.941365 7.29161 1.09068 7.81714 1.37465 8.27149C1.65862 8.72584 2.0656 9.09038 2.54837 9.32277C2.76297 9.42489 2.94417 9.58583 3.07084 9.78692C3.19752 9.98801 3.26447 10.221 3.26391 10.4587C3.26794 11.6639 3.1388 12.8659 2.87886 14.0427C2.43445 15.9494 2.20096 17.8992 2.18258 19.8569V20.582C2.18622 21.0641 2.28857 21.5403 2.48333 21.9813C2.67809 22.4223 2.96113 22.8187 3.31499 23.1461C3.66885 23.4735 4.08603 23.725 4.5408 23.885C4.99557 24.045 5.47829 24.1101 5.9592 24.0763C6.85867 23.9948 7.69441 23.5774 8.2998 22.9072C8.90519 22.237 9.23577 21.3632 9.22563 20.4601V19.8441C9.20526 17.8905 8.9707 15.9451 8.52614 14.0427C8.2632 12.8673 8.13084 11.6664 8.13147 10.4619C8.13091 10.2242 8.19786 9.99122 8.32453 9.79013C8.45121 9.58904 8.6324 9.4281 8.84701 9.32598C9.32978 9.09359 9.73676 8.72905 10.0207 8.2747C10.3047 7.82035 10.454 7.29482 10.4514 6.75904V1.26573C10.457 1.04012 10.3853 0.819421 10.2481 0.640214C10.111 0.461006 9.91658 0.334144 9.69731 0.280725ZM17.8313 15.6471C17.6155 14.6606 17.508 13.6535 17.5105 12.6437V0.957713C17.5105 0.726243 17.4185 0.504249 17.2548 0.340575C17.0912 0.1769 16.8692 0.0849609 16.6377 0.0849609C15.3612 0.0849609 14.137 0.592018 13.2344 1.49464C12.3318 2.39725 11.8247 3.62149 11.8247 4.89799V11.7164C11.8247 12.0143 11.943 12.2999 12.1536 12.5105C12.3642 12.7212 12.6499 12.8395 12.9477 12.8395C13.0123 12.8394 13.0762 12.8524 13.1357 12.8775C13.1951 12.9027 13.2489 12.9396 13.2938 12.986C13.3387 13.0325 13.3739 13.0875 13.3971 13.1477C13.4203 13.208 13.4312 13.2723 13.429 13.3368C13.3866 14.1103 13.2793 14.8788 13.1081 15.6342C12.7345 17.2324 12.5386 18.867 12.5242 20.5082V21.1147C12.5239 21.5207 12.6075 21.9224 12.7697 22.2947C12.932 22.6669 13.1693 23.0017 13.4669 23.2779C13.7646 23.5541 14.116 23.7659 14.4993 23.9C14.8826 24.034 15.2894 24.0875 15.6943 24.057C16.4488 23.9861 17.149 23.6338 17.6555 23.0702C18.1621 22.5066 18.4379 21.7729 18.4281 21.0152V20.5082C18.4085 18.8708 18.2084 17.2406 17.8313 15.6471Z" fill="#69737D"/>
</svg>