<svg xmlns="http://www.w3.org/2000/svg" width="25" height="19" viewBox="0 0 25 19" fill="none">
  <g clip-path="url(#clip0_901_201)">
    <path d="M4.96389 18.0431H3.89502C3.11248 18.0426 2.36213 17.7305 1.80879 17.1754C1.25545 16.6203 0.944345 15.8676 0.943848 15.0825V14.1572C0.955119 13.8942 1.06723 13.6456 1.25677 13.4635C1.4463 13.2814 1.69861 13.1797 1.96107 13.1797C2.22354 13.1797 2.47587 13.2814 2.66541 13.4635C2.85494 13.6456 2.96703 13.8942 2.9783 14.1572V15.0825C2.9783 15.3266 3.07482 15.5607 3.24669 15.7335C3.41855 15.9063 3.65172 16.0036 3.89502 16.0041H4.96389C5.23342 16.0041 5.49192 16.1115 5.68251 16.3027C5.8731 16.4939 5.98018 16.7532 5.98018 17.0236C5.98018 17.294 5.8731 17.5533 5.68251 17.7445C5.49192 17.9357 5.23342 18.0431 4.96389 18.0431Z" fill="#69737D"/>
    <path d="M24.9514 15.0825V14.1572C24.9401 13.8942 24.828 13.6456 24.6385 13.4635C24.4489 13.2814 24.1966 13.1797 23.9341 13.1797C23.6717 13.1797 23.4194 13.2814 23.2298 13.4635C23.0403 13.6456 22.9282 13.8942 22.9169 14.1572V15.0825C22.9169 15.3269 22.8202 15.5613 22.6479 15.7342C22.4756 15.907 22.242 16.0041 21.9983 16.0041H20.9313C20.6618 16.0041 20.4033 16.1115 20.2127 16.3027C20.0221 16.4939 19.915 16.7532 19.915 17.0236C19.915 17.294 20.0221 17.5533 20.2127 17.7445C20.4033 17.9357 20.6618 18.0431 20.9313 18.0431H21.9983C22.7811 18.0426 23.5316 17.7306 24.0852 17.1755C24.6389 16.6205 24.9504 15.8677 24.9514 15.0825Z" fill="#69737D"/>
    <path d="M2.97287 4.0109V3.08559C2.97337 2.84184 3.07011 2.60821 3.24192 2.43585C3.41373 2.26349 3.64661 2.16644 3.88959 2.16594H4.95846C5.22068 2.15463 5.46843 2.04218 5.64999 1.85204C5.83155 1.6619 5.9329 1.40878 5.9329 1.14548C5.9329 0.882179 5.83155 0.629035 5.64999 0.438897C5.46843 0.248758 5.22068 0.136307 4.95846 0.125H3.88959C3.1072 0.125997 2.35714 0.438233 1.80391 0.993237C1.25067 1.54824 0.939434 2.3007 0.93844 3.08559V4.0109C0.93254 4.1486 0.954462 4.28608 1.00292 4.41504C1.05138 4.54401 1.12536 4.6618 1.2204 4.76133C1.31544 4.86086 1.42957 4.94007 1.55593 4.99418C1.68229 5.04829 1.81826 5.07619 1.95564 5.07619C2.09303 5.07619 2.229 5.04829 2.35536 4.99418C2.48172 4.94007 2.59585 4.86086 2.69089 4.76133C2.78593 4.6618 2.85991 4.54401 2.90837 4.41504C2.95683 4.28608 2.97877 4.1486 2.97287 4.0109Z" fill="#69737D"/>
    <path d="M24.9515 4.01087V3.08556C24.9506 2.30034 24.6391 1.54759 24.0854 0.992535C23.5318 0.437478 22.7812 0.125464 21.9985 0.124966H20.9315C20.7942 0.119047 20.6572 0.141062 20.5286 0.189677C20.4001 0.238292 20.2827 0.312509 20.1835 0.407852C20.0843 0.503195 20.0053 0.617693 19.9514 0.744454C19.8974 0.871216 19.8696 1.00762 19.8696 1.14545C19.8696 1.28327 19.8974 1.41968 19.9514 1.54644C20.0053 1.6732 20.0843 1.7877 20.1835 1.88304C20.2827 1.97838 20.4001 2.0526 20.5286 2.10122C20.6572 2.14983 20.7942 2.17182 20.9315 2.1659H21.9985C22.2418 2.1659 22.4752 2.26273 22.6474 2.43515C22.8196 2.60756 22.9166 2.84148 22.9171 3.08556V4.01087C22.9112 4.14857 22.9331 4.28604 22.9816 4.41501C23.0301 4.54398 23.104 4.66177 23.1991 4.7613C23.2941 4.86083 23.4082 4.94004 23.5346 4.99415C23.661 5.04826 23.7969 5.07616 23.9343 5.07616C24.0717 5.07616 24.2077 5.04826 24.334 4.99415C24.4604 4.94004 24.5745 4.86083 24.6696 4.7613C24.7646 4.66177 24.8386 4.54398 24.887 4.41501C24.9355 4.28604 24.9574 4.14857 24.9515 4.01087Z" fill="#69737D"/>
    <path d="M8.43143 12.384V5.7881C8.42016 5.52504 8.30804 5.27649 8.11851 5.09435C7.92898 4.91221 7.67666 4.81055 7.4142 4.81055C7.15174 4.81055 6.8994 4.91221 6.70987 5.09435C6.52034 5.27649 6.40824 5.52504 6.39697 5.7881V12.384C6.40824 12.647 6.52034 12.8955 6.70987 13.0777C6.8994 13.2598 7.15174 13.3615 7.4142 13.3615C7.67666 13.3615 7.92898 13.2598 8.11851 13.0777C8.30804 12.8955 8.42016 12.647 8.43143 12.384Z" fill="#69737D"/>
    <path d="M11.5028 12.3839V5.78809C11.5028 5.5177 11.3957 5.25838 11.2051 5.06718C11.0145 4.87598 10.756 4.76855 10.4865 4.76855C10.217 4.76855 9.95847 4.87598 9.76788 5.06718C9.57729 5.25838 9.47021 5.5177 9.47021 5.78809V12.3839C9.47021 12.6543 9.57729 12.9137 9.76788 13.1049C9.95847 13.2961 10.217 13.4035 10.4865 13.4035C10.756 13.4035 11.0145 13.2961 11.2051 13.1049C11.3957 12.9137 11.5028 12.6543 11.5028 12.3839Z" fill="#69737D"/>
    <path d="M14.7342 12.3839V5.78809C14.7342 5.5177 14.6271 5.25838 14.4365 5.06718C14.246 4.87598 13.9875 4.76855 13.7179 4.76855C13.4484 4.76855 13.1899 4.87598 12.9993 5.06718C12.8087 5.25838 12.7017 5.5177 12.7017 5.78809V12.3839C12.7017 12.6543 12.8087 12.9137 12.9993 13.1049C13.1899 13.2961 13.4484 13.4035 13.7179 13.4035C13.9875 13.4035 14.246 13.2961 14.4365 13.1049C14.6271 12.9137 14.7342 12.6543 14.7342 12.3839Z" fill="#69737D"/>
    <path d="M19.4905 12.384V5.7881C19.4792 5.52504 19.3671 5.27649 19.1776 5.09435C18.9881 4.91221 18.7357 4.81055 18.4733 4.81055C18.2108 4.81055 17.9585 4.91221 17.769 5.09435C17.5794 5.27649 17.4673 5.52504 17.4561 5.7881V12.384C17.4673 12.647 17.5794 12.8955 17.769 13.0777C17.9585 13.2598 18.2108 13.3615 18.4733 13.3615C18.7357 13.3615 18.9881 13.2598 19.1776 13.0777C19.3671 12.8955 19.4792 12.647 19.4905 12.384Z" fill="#69737D"/>
  </g>
  <defs>
    <clipPath id="clip0_901_201">
      <rect width="24" height="17.92" fill="white" transform="translate(0.943848 0.125)"/>
    </clipPath>
  </defs>
</svg>