<svg xmlns="http://www.w3.org/2000/svg" width="20" height="25" viewBox="0 0 20 25" fill="none">
  <path d="M13.0141 18.0005H7.94366C6.64418 17.999 5.39836 17.4821 4.47949 16.5632C3.56062 15.6443 3.04375 14.3985 3.04225 13.099V1.7751H0.84507C0.620944 1.7751 0.405996 1.68607 0.247515 1.52759C0.0890333 1.36911 0 1.15416 0 0.930031C0 0.705905 0.0890333 0.490953 0.247515 0.332471C0.405996 0.17399 0.620944 0.0849609 0.84507 0.0849609H3.88732C4.11145 0.0849609 4.32639 0.17399 4.48488 0.332471C4.64336 0.490953 4.73239 0.705905 4.73239 0.930031V5.15538H18.0845C18.3288 5.15501 18.5707 5.20286 18.7964 5.29616C19.0221 5.38946 19.2272 5.52638 19.4 5.69909C19.5727 5.87181 19.7096 6.07691 19.8029 6.30264C19.8962 6.52837 19.944 6.7703 19.9437 7.01455V11.0709C19.9414 12.908 19.2106 14.6693 17.9116 15.9684C16.6125 17.2674 14.8512 17.9982 13.0141 18.0005ZM4.73239 6.84552V13.099C4.73314 13.9505 5.07171 14.7669 5.67378 15.3689C6.27584 15.971 7.09221 16.3096 7.94366 16.3103H13.0141C14.4032 16.3088 15.735 15.7563 16.7173 14.7741C17.6995 13.7918 18.252 12.46 18.2535 11.0709V7.01455C18.2521 6.97017 18.2338 6.92798 18.2025 6.89659C18.1711 6.86519 18.1289 6.84693 18.0845 6.84552H4.73239ZM5.91549 24.085C5.34722 24.085 4.79171 23.9165 4.3192 23.6007C3.8467 23.285 3.47844 22.8363 3.26097 22.3113C3.0435 21.7862 2.9866 21.2085 3.09746 20.6512C3.20833 20.0938 3.48197 19.5819 3.8838 19.18C4.28563 18.7782 4.7976 18.5046 5.35495 18.3937C5.9123 18.2828 6.49002 18.3397 7.01503 18.5572C7.54005 18.7747 7.98879 19.1429 8.3045 19.6154C8.62022 20.0879 8.78873 20.6434 8.78873 21.2117C8.78724 21.9733 8.48405 22.7032 7.94553 23.2418C7.40702 23.7803 6.67707 24.0835 5.91549 24.085ZM5.91549 20.0286C5.6815 20.0286 5.45275 20.098 5.2582 20.228C5.06364 20.358 4.912 20.5428 4.82245 20.759C4.73291 20.9752 4.70947 21.213 4.75512 21.4425C4.80077 21.672 4.91346 21.8828 5.07892 22.0483C5.24437 22.2138 5.45518 22.3264 5.68468 22.3721C5.91418 22.4177 6.15206 22.3943 6.36824 22.3048C6.58443 22.2152 6.7692 22.0636 6.8992 21.869C7.0292 21.6745 7.09859 21.4457 7.09859 21.2117C7.09859 20.8979 6.97394 20.597 6.75207 20.3751C6.5302 20.1533 6.22927 20.0286 5.91549 20.0286ZM17.0704 24.085C16.5021 24.085 15.9466 23.9165 15.4741 23.6007C15.0016 23.285 14.6334 22.8363 14.4159 22.3113C14.1984 21.7862 14.1415 21.2085 14.2524 20.6512C14.3633 20.0938 14.6369 19.5819 15.0387 19.18C15.4406 18.7782 15.9525 18.5046 16.5099 18.3937C17.0672 18.2828 17.6449 18.3397 18.17 18.5572C18.695 18.7747 19.1437 19.1429 19.4594 19.6154C19.7751 20.0879 19.9437 20.6434 19.9437 21.2117C19.9422 21.9733 19.639 22.7032 19.1005 23.2418C18.5619 23.7803 17.832 24.0835 17.0704 24.085ZM17.0704 20.0286C16.8364 20.0286 16.6077 20.098 16.4131 20.228C16.2186 20.358 16.0669 20.5428 15.9774 20.759C15.8878 20.9752 15.8644 21.213 15.9101 21.4425C15.9557 21.672 16.0684 21.8828 16.2338 22.0483C16.3993 22.2138 16.6101 22.3264 16.8396 22.3721C17.0691 22.4177 17.307 22.3943 17.5232 22.3048C17.7394 22.2152 17.9241 22.0636 18.0541 21.869C18.1841 21.6745 18.2535 21.4457 18.2535 21.2117C18.2535 20.8979 18.1289 20.597 17.907 20.3751C17.6851 20.1533 17.3842 20.0286 17.0704 20.0286Z" fill="#69737D"/>
</svg>