<svg xmlns="http://www.w3.org/2000/svg" width="24" height="18" viewBox="0 0 24 18" fill="none">
  <path d="M20.8615 0.408203H3.13845C2.30657 0.409829 1.50925 0.74101 0.92103 1.32923C0.332806 1.91746 0.00162634 2.71478 0 3.54665V14.6236C0.00162634 15.4554 0.332806 16.2528 0.92103 16.841C1.50925 17.4292 2.30657 17.7604 3.13845 17.762H20.8615C21.6934 17.7604 22.4907 17.4292 23.079 16.841C23.6672 16.2528 23.9984 15.4554 24 14.6236V3.54665C23.9984 2.71478 23.6672 1.91746 23.079 1.32923C22.4907 0.74101 21.6934 0.409829 20.8615 0.408203ZM17.8092 15.9159H6.19077C6.0002 14.8333 5.48101 13.8356 4.70373 13.0583C3.92644 12.281 2.92875 11.7618 1.84615 11.5713V6.59897C2.92875 6.4084 3.92644 5.88921 4.70373 5.11193C5.48101 4.33465 6.0002 3.33695 6.19077 2.25436H17.8092C17.9998 3.33695 18.519 4.33465 19.2963 5.11193C20.0735 5.88921 21.0712 6.4084 22.1538 6.59897V11.5713C21.0712 11.7618 20.0735 12.281 19.2963 13.0583C18.519 13.8356 17.9998 14.8333 17.8092 15.9159ZM22.1538 3.54665V4.71282C21.5651 4.55167 21.0285 4.23992 20.5968 3.80829C20.1652 3.37666 19.8535 2.84004 19.6923 2.25128H20.8585C21.0287 2.25087 21.1973 2.28409 21.3547 2.34905C21.512 2.414 21.655 2.5094 21.7753 2.62977C21.8957 2.75014 21.9911 2.89312 22.0561 3.05046C22.121 3.20781 22.1543 3.37642 22.1538 3.54665ZM3.13845 2.25436H4.30461C4.14346 2.84312 3.83172 3.37974 3.40009 3.81137C2.96846 4.243 2.43183 4.55475 1.84307 4.7159V3.54665C1.84307 3.37668 1.87659 3.20839 1.94173 3.0514C2.00686 2.89441 2.10233 2.7518 2.22266 2.63176C2.34298 2.51172 2.48583 2.41661 2.64297 2.35184C2.80012 2.28708 2.96848 2.25395 3.13845 2.25436ZM1.84615 14.6236V13.4574C2.43492 13.6186 2.97154 13.9303 3.40317 14.3619C3.8348 14.7936 4.14654 15.3302 4.30769 15.919H3.13845C2.96848 15.919 2.80019 15.8854 2.6432 15.8203C2.48621 15.7552 2.3436 15.6597 2.22356 15.5394C2.10352 15.419 2.0084 15.2762 1.94364 15.1191C1.87888 14.9619 1.84575 14.7935 1.84615 14.6236ZM20.8615 15.9159H19.6954C19.8565 15.3271 20.1683 14.7905 20.5999 14.3589C21.0315 13.9272 21.5681 13.6155 22.1569 13.4543V14.6205C22.1573 14.7907 22.1241 14.9594 22.0591 15.1167C21.9942 15.274 21.8988 15.417 21.7784 15.5374C21.658 15.6578 21.5151 15.7532 21.3577 15.8181C21.2004 15.8831 21.0318 15.9163 20.8615 15.9159ZM12 3.73128C10.9411 3.73128 9.906 4.04528 9.02556 4.63356C8.14512 5.22185 7.45891 6.058 7.05369 7.03628C6.64847 8.01457 6.54244 9.09106 6.74902 10.1296C6.9556 11.1681 7.46549 12.1221 8.21424 12.8709C8.96299 13.6196 9.91697 14.1295 10.9555 14.3361C11.9941 14.5427 13.0705 14.4366 14.0488 14.0314C15.0271 13.6262 15.8633 12.94 16.4515 12.0596C17.0398 11.1791 17.3538 10.144 17.3538 9.08511C17.3514 7.66593 16.7865 6.30559 15.783 5.30208C14.7795 4.29856 13.4192 3.73372 12 3.73128ZM12 12.5928C11.3062 12.5928 10.6281 12.3871 10.0512 12.0017C9.4744 11.6162 9.0248 11.0684 8.75932 10.4275C8.49383 9.78651 8.42436 9.08123 8.5597 8.4008C8.69505 7.72038 9.02912 7.09537 9.51968 6.60481C10.0102 6.11425 10.6352 5.78018 11.3157 5.64483C11.9961 5.50949 12.7014 5.57894 13.3423 5.84443C13.9833 6.10992 14.5311 6.55951 14.9165 7.13634C15.302 7.71318 15.5077 8.39136 15.5077 9.08511C15.5069 10.0152 15.137 10.9069 14.4794 11.5645C13.8218 12.2222 12.93 12.592 12 12.5928Z" fill="#69737D"/>
</svg>