<svg xmlns="http://www.w3.org/2000/svg" width="25" height="19" viewBox="0 0 25 19" fill="none">
  <g clip-path="url(#clip0_901_202)">
    <path d="M21.2455 0.125977H4.63528C3.65439 0.126872 2.71389 0.516706 2.01998 1.20998C1.32607 1.90326 0.935388 2.84341 0.933594 3.82429V14.3328C0.934491 15.3142 1.32478 16.2552 2.01879 16.9493C2.7128 17.6433 3.65381 18.0336 4.63528 18.0345H21.2455C22.2263 18.0327 23.1665 17.642 23.8598 16.9481C24.553 16.2542 24.9429 15.3137 24.9438 14.3328V3.82429C24.942 2.84399 24.5517 1.90434 23.8586 1.21116C23.1654 0.517982 22.2258 0.127769 21.2455 0.125977ZM4.63528 2.15987H21.2455C21.6869 2.15987 22.1102 2.33523 22.4224 2.64737C22.7345 2.95951 22.9099 3.38286 22.9099 3.82429V5.08191H2.97766V3.82429C2.97856 3.38255 3.15466 2.9592 3.46734 2.64716C3.78001 2.33512 4.20372 2.15987 4.64546 2.15987H4.63528ZM21.2455 16.0107H4.63528C4.19323 16.0098 3.76955 15.8338 3.45697 15.5213C3.14439 15.2087 2.96839 14.785 2.96749 14.3429V7.11581H22.8997V14.3429C22.8997 14.7829 22.7258 15.2051 22.416 15.5175C22.1062 15.8299 21.6854 16.0071 21.2455 16.0107Z" fill="#69737D"/>
    <path d="M10.5472 11.0547H5.9608C5.69109 11.0547 5.43241 11.1618 5.2417 11.3526C5.05098 11.5433 4.94385 11.8019 4.94385 12.0716C4.94385 12.3413 5.05098 12.6 5.2417 12.7907C5.43241 12.9814 5.69109 13.0886 5.9608 13.0886H10.5472C10.8169 13.0886 11.0756 12.9814 11.2663 12.7907C11.457 12.6 11.5642 12.3413 11.5642 12.0716C11.5642 11.8019 11.457 11.5433 11.2663 11.3526C11.0756 11.1618 10.8169 11.0547 10.5472 11.0547Z" fill="#69737D"/>
    <path d="M19.7641 11.0547H15.6556C15.3859 11.0547 15.1272 11.1618 14.9365 11.3526C14.7458 11.5433 14.6387 11.8019 14.6387 12.0716C14.6387 12.3413 14.7458 12.6 14.9365 12.7907C15.1272 12.9814 15.3859 13.0886 15.6556 13.0886H19.7675C20.0372 13.0886 20.2959 12.9814 20.4866 12.7907C20.6773 12.6 20.7844 12.3413 20.7844 12.0716C20.7844 11.8019 20.6773 11.5433 20.4866 11.3526C20.2959 11.1618 20.0372 11.0547 19.7675 11.0547H19.7641Z" fill="#69737D"/>
  </g>
  <defs>
    <clipPath id="clip0_901_202">
      <rect width="24" height="17.9186" fill="white" transform="translate(0.943848 0.125977)"/>
    </clipPath>
  </defs>
</svg>