<svg xmlns="http://www.w3.org/2000/svg" width="32" height="32" viewBox="0 0 32 32" fill="none">
    <path d="M11.2 0H1.6C0.693333 0 0 0.693333 0 1.6V11.2C0 12.1067 0.693333 12.8 1.6 12.8C2.50667 12.8 3.2 12.1067 3.2 11.2V3.2H11.2C12.1067 3.2 12.8 2.50667 12.8 1.6C12.8 0.693333 12.1067 0 11.2 0Z" fill="#EA3458" />
    <path d="M30.4 0H20.8C19.8933 0 19.2 0.693333 19.2 1.6C19.2 2.50667 19.8933 3.2 20.8 3.2H28.8V11.2C28.8 12.1067 29.4933 12.8 30.4 12.8C31.3066 12.8 32 12.1067 32 11.2V1.6C32 0.693333 31.3066 0 30.4 0Z" fill="#EA3458" />
    <path d="M30.4 19.2002C29.4933 19.2002 28.8 19.8935 28.8 20.8002V28.8002H20.8C19.8933 28.8002 19.2 29.4935 19.2 30.4002C19.2 31.3069 19.8933 32.0002 20.8 32.0002H30.4C31.3066 32.0002 32 31.3069 32 30.4002V20.8002C32 19.8935 31.3066 19.2002 30.4 19.2002Z" fill="#EA3458" />
    <path d="M11.2 28.8002H3.2V20.8002C3.2 19.8935 2.50667 19.2002 1.6 19.2002C0.693333 19.2002 0 19.8935 0 20.8002V30.4002C0 31.3069 0.693333 32.0002 1.6 32.0002H11.2C12.1067 32.0002 12.8 31.3069 12.8 30.4002C12.8 29.4935 12.1067 28.8002 11.2 28.8002Z" fill="#EA3458" />
</svg>