<svg xmlns="http://www.w3.org/2000/svg" width="34" height="33" viewBox="0 0 34 33" fill="none">
  <path d="M0 27.6456C0 30.4825 2.47973 32.752 5.5794 32.752H13.0186C14.0725 32.752 14.8784 32.0144 14.8784 31.0498V24.2413H18.598V31.0498C18.598 32.0144 19.4039 32.752 20.4578 32.752H27.897C30.9967 32.752 33.4764 30.4825 33.4764 27.6456V11.5888C33.4764 10.3973 32.7945 9.31931 31.7406 8.6952L18.722 1.26259C17.5441 0.58174 15.9943 0.58174 14.7544 1.26259L1.73581 8.6952C0.619935 9.31931 0 10.3973 0 11.5888V27.6456ZM3.7196 11.5888L16.7382 4.15619L29.7568 11.5888V27.6456C29.7568 28.6101 28.9509 29.3477 27.897 29.3477H22.3176V22.5392C22.3176 21.5746 21.5117 20.8371 20.4578 20.8371H13.0186C11.9647 20.8371 11.1588 21.5746 11.1588 22.5392V29.3477H5.5794C4.52551 29.3477 3.7196 28.6101 3.7196 27.6456V11.5888Z" fill="white"/>
</svg>