<svg xmlns="http://www.w3.org/2000/svg" width="41" height="41" viewBox="0 0 41 41" fill="none">
  <rect x="0.5" y="0.0849609" width="40" height="40" rx="20" fill="white"/>
  <path d="M29.6451 15.1283V18.2538C28.7488 18.4795 26.879 17.888 24.5515 16.6216V17.0655C24.5515 19.3064 24.5601 21.5483 24.5515 23.7892C24.5376 26.8827 22.5609 29.3086 19.5445 29.9579C16.2692 30.6628 12.8539 28.3534 12.2709 25.0514C11.6676 21.6179 13.7363 18.5159 17.1474 17.8024C17.8416 17.657 18.57 17.672 19.3327 17.6088V20.8659C18.9562 20.8659 18.5839 20.8563 18.2224 20.8659C17.4421 20.9002 16.7054 21.2354 16.1669 21.8012C15.6284 22.367 15.33 23.1194 15.3344 23.9005C15.3477 24.6819 15.6628 25.4278 16.2137 25.982C16.7646 26.5363 17.5085 26.856 18.2898 26.8741C20.0847 26.8944 21.3918 25.5606 21.3918 23.6834C21.3975 19.3335 21.3975 14.9836 21.3918 10.6337V10.085H24.5601C24.8735 13.1195 26.5079 14.8759 29.6451 15.1283Z" fill="#EA3458"/>
</svg>