<svg xmlns="http://www.w3.org/2000/svg" width="30" height="30" viewBox="0 0 30 32" fill="none">
    <path d="M25.5312 16.7619V10.6667C25.5312 4.7746 20.8636 0 15.1036 0C9.34358 0 4.676 4.7746 4.676 10.6667V16.7619C2.19324 16.7619 0.207031 18.7937 0.207031 21.3333C0.207031 23.873 2.19324 25.9048 4.676 25.9048H9.14496C9.14496 29.2571 11.8263 32 15.1036 32C18.3808 32 21.0622 29.2571 21.0622 25.9048H25.5312C28.0139 25.9048 30.0001 23.873 30.0001 21.3333C30.0001 18.7937 28.0139 16.7619 25.5312 16.7619ZM15.1036 28.9524C13.465 28.9524 12.1243 27.581 12.1243 25.9048H18.0829C18.0829 27.581 16.7422 28.9524 15.1036 28.9524ZM25.5312 22.8571H4.676C3.83186 22.8571 3.18634 22.1968 3.18634 21.3333C3.18634 20.4698 3.83186 19.8095 4.676 19.8095C6.31462 19.8095 7.65531 18.4381 7.65531 16.7619V10.6667C7.65531 6.45079 10.9822 3.04762 15.1036 3.04762C19.225 3.04762 22.5519 6.45079 22.5519 10.6667V16.7619C22.5519 18.4381 23.8925 19.8095 25.5312 19.8095C26.3753 19.8095 27.0208 20.4698 27.0208 21.3333C27.0208 22.1968 26.3753 22.8571 25.5312 22.8571Z" fill="white" />
</svg>