<svg className="shrink-0" xmlns="http://www.w3.org/2000/svg" width="24" height="24" viewBox="0 0 25 24" fill="none">
    <path d="M19.5805 14.747C20.2552 13.3976 20.6407 11.8554 20.6407 10.2169C20.6407 4.59439 16.0464 0 10.4239 0C4.80142 0 0.207031 4.59439 0.207031 10.2169C0.207031 15.8394 4.80142 20.4337 10.4239 20.4337C12.0625 20.4337 13.5725 20.0482 14.954 19.3735L18.6167 23.0361C19.2592 23.6787 20.0946 24 20.9299 24C21.7652 24 22.6006 23.6787 23.2432 23.0361C23.8536 22.4257 24.207 21.5903 24.207 20.7229C24.207 19.8554 23.8536 19.0201 23.2432 18.4096L19.5805 14.747ZM10.4239 18.506C5.86166 18.506 2.13474 14.7791 2.13474 10.2169C2.13474 5.65463 5.86166 1.92771 10.4239 1.92771C14.9861 1.92771 18.713 5.65463 18.713 10.2169C18.713 14.7791 14.9861 18.506 10.4239 18.506ZM21.8938 21.6867C21.3797 22.2008 20.5122 22.2008 19.9982 21.6867L16.6568 18.3454C17.3637 17.7992 18.0062 17.1566 18.5524 16.4498L21.8938 19.7911C22.1508 20.0482 22.2793 20.3694 22.2793 20.755C22.2793 21.1405 22.1508 21.4297 21.8938 21.6867Z" fill="#606060" />
</svg>