<svg xmlns="http://www.w3.org/2000/svg" width="53" height="25" viewBox="0 0 53 25" fill="none">
  <g clip-path="url(#clip0_901_213)">
    <path d="M0.944941 0.982576C1.22663 0.796392 1.56168 0.708454 1.89825 0.732367L2.35135 0.755478C3.16131 0.755478 3.73704 0.898838 4.07854 1.18556C4.42003 1.47228 4.59178 1.966 4.59378 2.66672V7.80254C4.59378 9.01373 5.21329 9.61899 6.45229 9.61832C6.9445 9.6316 7.43339 9.53372 7.88276 9.33193V2.06983C7.88276 1.52788 8.01641 1.16546 8.28373 0.982576C8.56542 0.796392 8.90047 0.708454 9.23704 0.732367L9.68913 0.755478C10.5004 0.755478 11.0765 0.898838 11.4173 1.18556C11.7581 1.47228 11.9289 1.966 11.9296 2.66672V9.92882C11.9296 10.6135 11.6833 11.1547 11.1908 11.5527C10.6982 11.9506 9.95144 12.2691 8.95034 12.5083C8.12326 12.7057 7.27541 12.8022 6.42522 12.7957C4.53464 12.7957 3.08078 12.3777 2.06365 11.5416C1.04652 10.7056 0.539959 9.45921 0.543969 7.80254V2.07486C0.543969 1.53022 0.677626 1.16613 0.944941 0.982576Z" fill="#EA3458"/>
    <path d="M25.4242 6.72723C25.4242 8.66995 24.9039 10.1712 23.8634 11.231C22.8229 12.2908 21.3567 12.82 19.4648 12.8187C18.7243 12.8187 18.0938 12.7162 17.5732 12.5112V15.3549C17.5732 16.2714 17.1388 16.7138 16.27 16.6823H15.7498C14.9478 16.6823 14.3798 16.5443 14.0456 16.2683C13.7115 15.9923 13.5444 15.4983 13.5444 14.7862V3.40517C13.535 3.05613 13.6198 2.71102 13.79 2.40634C13.9916 2.09286 14.2579 1.82629 14.5709 1.62456C15.1316 1.26141 15.752 1.00048 16.4033 0.853838C17.1973 0.665096 18.0112 0.573655 18.8272 0.581522C20.8922 0.581522 22.4684 1.07926 23.5557 2.07474C24.802 3.16668 25.4249 4.71751 25.4242 6.72723ZM18.9686 3.73677C18.474 3.73832 17.9872 3.8604 17.5501 4.09249V9.30669C17.9631 9.51047 18.4143 9.6245 18.8743 9.64131C20.4969 9.64131 21.3086 8.66995 21.3092 6.72723C21.3092 4.73426 20.529 3.73744 18.9686 3.73677Z" fill="#EA3458"/>
    <path d="M38.0719 6.72723C38.0719 8.66995 37.5516 10.1712 36.5111 11.231C35.4706 12.2908 34.0044 12.82 32.1125 12.8187C31.3713 12.8187 30.7408 12.7162 30.2209 12.5112V15.3549C30.2209 16.2714 29.7865 16.7138 28.9177 16.6823H28.3975C27.5955 16.6823 27.0275 16.5443 26.6933 16.2683C26.3592 15.9923 26.1921 15.4983 26.1921 14.7862V3.40517C26.1827 3.05613 26.2675 2.71102 26.4377 2.40634C26.6395 2.093 26.9058 1.82646 27.2186 1.62456C27.7793 1.26141 28.3997 1.00048 29.051 0.853838C29.845 0.665096 30.6589 0.573655 31.4749 0.581522C33.5399 0.581522 35.1161 1.07926 36.2034 2.07474C37.4497 3.16668 38.0726 4.71751 38.0719 6.72723ZM31.6193 3.73677C31.1247 3.73832 30.6379 3.8604 30.2008 4.09249V9.30669C30.612 9.50965 31.0611 9.62366 31.519 9.64131C33.143 9.64131 33.9546 8.66995 33.9539 6.72723C33.9559 4.73426 33.1777 3.73744 31.6193 3.73677Z" fill="#051626"/>
    <path d="M52.5922 1.24534C51.4394 0.608259 49.1789 0.441453 48.9534 2.05626C48.9449 2.05472 48.9366 2.05271 48.9283 2.05023C48.1945 4.89799 47.2122 7.34482 46.0544 9.44095C45.5161 8.33561 43.9733 1.82816 42.9568 1.18605C41.9444 0.450496 39.1376 0.566055 39.1055 2.25823C39.737 5.86868 41.5895 10.6518 43.1263 13.5337C38.7286 19.1167 31.5983 20.7466 27.1044 20.4321C25.0184 20.2763 23.1689 19.1649 22.2256 20.7245C22.1574 20.837 21.959 21.1536 21.7715 21.4681C21.6522 21.6691 21.5389 21.865 21.4708 22.0097C21.4205 22.1347 21.3868 22.2658 21.3705 22.3996C21.3395 23.5783 23.0857 24.0375 24.2776 24.2314C39.8483 26.7848 50.2736 14.9948 52.5491 4.46892C52.5812 4.31819 52.6102 4.16746 52.6413 4.01874C53.0373 2.14669 53.2137 1.6312 52.5922 1.24534Z" fill="#051626"/>
  </g>
  <defs>
    <clipPath id="clip0_901_213">
      <rect width="52.4571" height="24" fill="white" transform="translate(0.542969 0.584961)"/>
    </clipPath>
  </defs>
</svg>