<svg xmlns="http://www.w3.org/2000/svg" width="27" height="32" viewBox="0 0 27 32" fill="none">
    <path d="M3.87795 32H22.4695C23.5211 32 24.5352 31.5493 25.2488 30.7981C25.9625 30.0469 26.3381 28.9953 26.3005 27.9436L25.2488 10.3662C25.1362 8.33802 23.4461 6.76056 21.4179 6.76056H19.0141V5.85915C19.0141 2.6291 16.385 0 13.155 0C9.92493 0 7.29583 2.6291 7.29583 5.85915V6.76056H4.89206C2.86389 6.76056 1.17373 8.33802 1.06105 10.3662L0.00943415 27.9436C-0.0656832 28.9953 0.309876 30.0469 1.06105 30.7981C1.81222 31.5493 2.82631 32 3.87795 32ZM9.5869 5.85915C9.5869 3.86853 11.2019 2.25352 13.1925 2.25352C15.1831 2.25352 16.7981 3.86853 16.7981 5.85915V6.76056H9.5869V5.85915ZM3.35217 10.5164C3.38972 9.69014 4.10332 9.01408 4.92961 9.01408H7.33338V10.5916C7.33338 11.2301 7.82164 11.7183 8.46014 11.7183C9.09863 11.7183 9.5869 11.2301 9.5869 10.5916V9.01408H16.7981V10.5916C16.7981 11.2301 17.2864 11.7183 17.9249 11.7183C18.5634 11.7183 19.0517 11.2301 19.0517 10.5916V9.01408H21.4554C22.2817 9.01408 22.9953 9.65258 23.0329 10.5164L24.0845 28.0939C24.1221 28.5446 23.9719 28.9577 23.6714 29.2582C23.3709 29.5962 22.9578 29.7465 22.5071 29.7465H3.91555C3.46484 29.7465 3.05166 29.5587 2.75119 29.2582C2.45072 28.9202 2.3005 28.507 2.33805 28.0939L3.35217 10.5164Z" fill="white" />
</svg>