<svg xmlns="http://www.w3.org/2000/svg" width="33" height="33" viewBox="0 0 34 33" fill="none">
    <path d="M5.0287 28.0411C4.80492 29.3838 5.36438 30.6705 6.48326 31.4537C7.09865 31.9013 7.82592 32.125 8.60913 32.125C9.16858 32.125 9.67206 32.0131 10.1756 31.7334L16.721 28.4886L23.2665 31.7334C24.4413 32.3488 25.8959 32.2369 26.9588 31.3978C28.0217 30.6145 28.5812 29.2719 28.4134 27.9852L27.3504 20.8243L32.4413 15.6775C33.3924 14.7264 33.728 13.3278 33.2805 12.0411C32.8889 10.7544 31.77 9.85927 30.4833 9.6355L23.2665 8.46068L19.9098 2.02711C19.2945 0.852287 18.0637 0.125 16.721 0.125C15.3784 0.125 14.1476 0.852287 13.5322 2.02711L10.1756 8.46068L2.95879 9.6355C1.61613 9.85927 0.553197 10.8104 0.161588 12.0411C-0.230021 13.3278 0.105644 14.7264 1.00075 15.6775L6.09165 20.8243L5.0287 28.0411ZM3.40634 13.3837C3.40634 13.3837 3.29443 13.2719 3.35037 13.16C3.40632 13.0481 3.46229 12.9921 3.51823 12.9921L11.5182 11.6495C12.0217 11.5376 12.4693 11.2579 12.749 10.7544L16.4972 3.59351C16.4972 3.53756 16.5532 3.48165 16.6651 3.48165C16.777 3.48165 16.8329 3.59351 16.8329 3.59351L20.5812 10.7544C20.805 11.2019 21.2525 11.5376 21.8119 11.6495L29.812 12.9921C29.8679 12.9921 29.9238 12.9922 29.9798 13.16C30.0357 13.2719 29.9798 13.3837 29.9238 13.3837L24.2176 19.146C23.8259 19.5376 23.6581 20.0411 23.77 20.6005L25.0007 28.6006C25.0007 28.6565 25.0007 28.7125 24.8889 28.8244C24.777 28.8803 24.721 28.8803 24.6651 28.8244L17.3924 25.188C16.9448 24.9642 16.3854 24.9642 15.8819 25.188L8.60913 28.8244C8.55319 28.8244 8.49723 28.8803 8.38534 28.8244C8.27346 28.7684 8.27348 28.6565 8.27348 28.6006L9.50423 20.6005C9.56017 20.097 9.39234 19.5376 9.05668 19.146L3.40634 13.3837Z" fill="white" />
</svg>