<svg xmlns="http://www.w3.org/2000/svg" width="34" height="33" viewBox="0 0 34 33" fill="none">
  <path d="M21.4041 32.752H27.5685C29.9658 32.752 31.935 30.6759 31.935 28.1484V17.0454C31.935 16.2781 31.3785 15.6914 30.6507 15.6914C29.923 15.6914 29.3665 16.2781 29.3665 17.0454V28.1484C29.3665 29.1865 28.5531 30.044 27.5685 30.044H22.6883V23.2739C22.6883 21.6491 21.4041 20.295 19.863 20.295H13.6985C12.1574 20.295 10.8731 21.6491 10.8731 23.2739V30.044H5.99294C5.00834 30.044 4.19498 29.1865 4.19498 28.1484V17.0454C4.19498 16.2781 3.63847 15.6914 2.91072 15.6914C2.18298 15.6914 1.62646 16.2781 1.62646 17.0454V28.1484C1.62646 30.6759 3.59566 32.752 5.99294 32.752H12.1574C12.8851 32.752 13.4417 32.1653 13.4417 31.398V23.2739C13.4417 23.1385 13.5701 23.0031 13.6985 23.0031H19.863C19.9914 23.0031 20.1198 23.1385 20.1198 23.2739V31.398C20.1198 32.1653 20.6763 32.752 21.4041 32.752Z" fill="white"/>
  <path d="M5.22266 14.8789C6.76377 14.8789 8.13365 14.1568 9.07544 13.0284C10.0172 14.1568 11.3871 14.8789 12.9282 14.8789C14.4693 14.8789 15.8392 14.1568 16.781 13.0284C17.7228 14.1568 19.0927 14.8789 20.6338 14.8789C22.1749 14.8789 23.5448 14.1568 24.4866 13.0284C25.4284 14.1568 26.7982 14.8789 28.3393 14.8789C31.1647 14.8789 33.4764 12.4417 33.4764 9.46283V7.02559C33.4764 6.93532 33.4764 6.84506 33.4336 6.75479C33.4336 6.70966 33.3908 6.6645 33.3908 6.61937C33.3908 6.57424 33.348 6.52914 33.348 6.484C33.348 6.43887 33.3051 6.39371 33.2623 6.34858C33.2623 6.30344 33.2195 6.25833 33.2195 6.25833C33.1767 6.16806 33.1339 6.12293 33.0483 6.03266L28.425 1.15817C28.1681 0.887366 27.8685 0.751953 27.526 0.751953H5.95042C5.60795 0.751953 5.26547 0.887366 5.05143 1.15817L0.428087 6.03266C0.385278 6.0778 0.299663 6.16806 0.256855 6.25833C0.256855 6.30347 0.214043 6.30344 0.214043 6.34858C0.171235 6.39371 0.171243 6.43887 0.128434 6.484C0.128434 6.52914 0.0856226 6.57424 0.0856226 6.61937C0.0856226 6.6645 0.0428113 6.70966 0.0428113 6.75479C0.0428113 6.84506 0 6.93532 0 7.02559V9.46283C0.0856173 12.4417 2.39729 14.8789 5.22266 14.8789ZM15.4967 9.46283C15.4967 10.9523 14.3409 12.1709 12.9282 12.1709C11.5155 12.1709 10.3597 10.9523 10.3597 9.46283V8.37961H15.4967V9.46283ZM23.2023 9.46283C23.2023 10.9523 22.0465 12.1709 20.6338 12.1709C19.2211 12.1709 18.0653 10.9523 18.0653 9.46283V8.37961H23.2023V9.46283ZM30.9079 9.46283C30.9079 10.9523 29.752 12.1709 28.3393 12.1709C26.9267 12.1709 25.7708 10.9523 25.7708 9.46283V8.37961H30.9079V9.46283ZM6.50692 3.50517H27.0551L29.1099 5.67157H24.4866H16.781H9.07544H4.45211L6.50692 3.50517ZM2.65414 8.37961H7.79118V9.46283C7.79118 10.9523 6.63535 12.1709 5.22266 12.1709C3.80998 12.1709 2.65414 10.9523 2.65414 9.46283V8.37961Z" fill="white"/>
</svg>